<mxfile host="65bd71144e">
    <diagram id="AZx40asFmQuckyMl9bsK" name="Page-1">
        <mxGraphModel dx="1451" dy="779" grid="1" gridSize="10" guides="1" tooltips="1" connect="1" arrows="1" fold="1" page="1" pageScale="1" pageWidth="850" pageHeight="1100" math="0" shadow="0">
            <root>
                <mxCell id="0"/>
                <mxCell id="1" parent="0"/>
                <mxCell id="5" value="" style="group" parent="1" vertex="1" connectable="0">
                    <mxGeometry x="350" y="120" width="120" height="60" as="geometry"/>
                </mxCell>
                <mxCell id="2" value="" style="whiteSpace=wrap;html=1;fillColor=#f5f5f5;strokeColor=#00CC00;gradientColor=#b3b3b3;strokeWidth=4;perimeterSpacing=0;fontStyle=1;fontColor=#000000;" parent="5" vertex="1">
                    <mxGeometry width="120" height="60" as="geometry"/>
                </mxCell>
                <mxCell id="4" value="main" style="text;strokeColor=none;align=center;fillColor=none;html=1;verticalAlign=middle;whiteSpace=wrap;rounded=0;strokeWidth=4;fontColor=#000000;fontSize=16;fontStyle=1" parent="5" vertex="1">
                    <mxGeometry x="30" y="15" width="60" height="30" as="geometry"/>
                </mxCell>
                <mxCell id="6" value="" style="group" parent="1" vertex="1" connectable="0">
                    <mxGeometry x="350" y="440" width="120" height="60" as="geometry"/>
                </mxCell>
                <mxCell id="7" value="" style="whiteSpace=wrap;html=1;fillColor=#f5f5f5;strokeColor=#00CC00;gradientColor=#b3b3b3;strokeWidth=4;perimeterSpacing=0;fontStyle=1;fontColor=#000000;" parent="6" vertex="1">
                    <mxGeometry width="120" height="60" as="geometry"/>
                </mxCell>
                <mxCell id="8" value="database" style="text;strokeColor=none;align=center;fillColor=none;html=1;verticalAlign=middle;whiteSpace=wrap;rounded=0;strokeWidth=4;fontColor=#000000;fontSize=16;fontStyle=1" parent="6" vertex="1">
                    <mxGeometry x="30" y="15" width="60" height="30" as="geometry"/>
                </mxCell>
                <mxCell id="10" value="" style="group" parent="1" vertex="1" connectable="0">
                    <mxGeometry x="60" y="270" width="170" height="60" as="geometry"/>
                </mxCell>
                <mxCell id="11" value="" style="whiteSpace=wrap;html=1;fillColor=#f5f5f5;strokeColor=#00CC00;gradientColor=#b3b3b3;strokeWidth=4;perimeterSpacing=0;fontStyle=1;fontColor=#000000;" parent="10" vertex="1">
                    <mxGeometry width="170" height="60" as="geometry"/>
                </mxCell>
                <mxCell id="12" value="ShippingShipList" style="text;strokeColor=none;align=center;fillColor=none;html=1;verticalAlign=middle;whiteSpace=wrap;rounded=0;strokeWidth=4;fontColor=#000000;fontSize=16;fontStyle=1" parent="10" vertex="1">
                    <mxGeometry x="42.5" y="15" width="85" height="30" as="geometry"/>
                </mxCell>
                <mxCell id="18" value="" style="edgeStyle=none;orthogonalLoop=1;jettySize=auto;html=1;fontSize=16;fontColor=#000000;shape=flexArrow;curved=1;exitX=0;exitY=0.5;exitDx=0;exitDy=0;entryX=0.5;entryY=0;entryDx=0;entryDy=0;fillColor=#FFFFFF;strokeWidth=1;startSize=6;" parent="1" source="2" target="11" edge="1">
                    <mxGeometry width="80" relative="1" as="geometry">
                        <mxPoint x="430" y="230" as="sourcePoint"/>
                        <mxPoint x="250" y="240" as="targetPoint"/>
                        <Array as="points">
                            <mxPoint x="290" y="150"/>
                            <mxPoint x="200" y="150"/>
                            <mxPoint x="145" y="190"/>
                        </Array>
                    </mxGeometry>
                </mxCell>
                <mxCell id="22" value="" style="group" parent="1" vertex="1" connectable="0">
                    <mxGeometry x="325" y="270" width="170" height="60" as="geometry"/>
                </mxCell>
                <mxCell id="23" value="" style="whiteSpace=wrap;html=1;fillColor=#f5f5f5;strokeColor=#00CC00;gradientColor=#b3b3b3;strokeWidth=4;perimeterSpacing=0;fontStyle=1;fontColor=#000000;" parent="22" vertex="1">
                    <mxGeometry width="170" height="60" as="geometry"/>
                </mxCell>
                <mxCell id="24" value="HaulerList" style="text;strokeColor=none;align=center;fillColor=none;html=1;verticalAlign=middle;whiteSpace=wrap;rounded=0;strokeWidth=4;fontColor=#000000;fontSize=16;fontStyle=1" parent="22" vertex="1">
                    <mxGeometry x="42.5" y="15" width="85" height="30" as="geometry"/>
                </mxCell>
                <mxCell id="26" value="" style="group" parent="1" vertex="1" connectable="0">
                    <mxGeometry x="590" y="270" width="170" height="60" as="geometry"/>
                </mxCell>
                <mxCell id="27" value="" style="whiteSpace=wrap;html=1;fillColor=#f5f5f5;strokeColor=#00CC00;gradientColor=#b3b3b3;strokeWidth=4;perimeterSpacing=0;fontStyle=1;fontColor=#000000;" parent="26" vertex="1">
                    <mxGeometry width="170" height="60" as="geometry"/>
                </mxCell>
                <mxCell id="28" value="DockList" style="text;strokeColor=none;align=center;fillColor=none;html=1;verticalAlign=middle;whiteSpace=wrap;rounded=0;strokeWidth=4;fontColor=#000000;fontSize=16;fontStyle=1" parent="26" vertex="1">
                    <mxGeometry x="42.5" y="15" width="85" height="30" as="geometry"/>
                </mxCell>
                <mxCell id="30" value="" style="edgeStyle=none;orthogonalLoop=1;jettySize=auto;html=1;strokeWidth=1;fontSize=16;fontColor=#000000;startSize=6;fillColor=#FFFFFF;shape=flexArrow;curved=1;exitX=0.5;exitY=1;exitDx=0;exitDy=0;entryX=0.5;entryY=0;entryDx=0;entryDy=0;" parent="1" source="2" target="23" edge="1">
                    <mxGeometry width="80" relative="1" as="geometry">
                        <mxPoint x="430" y="230" as="sourcePoint"/>
                        <mxPoint x="510" y="230" as="targetPoint"/>
                        <Array as="points"/>
                    </mxGeometry>
                </mxCell>
                <mxCell id="31" value="" style="edgeStyle=none;orthogonalLoop=1;jettySize=auto;html=1;strokeWidth=1;fontSize=16;fontColor=#000000;startSize=6;fillColor=#FFFFFF;shape=flexArrow;curved=1;exitX=1;exitY=0.5;exitDx=0;exitDy=0;entryX=0.5;entryY=0;entryDx=0;entryDy=0;" parent="1" source="2" target="27" edge="1">
                    <mxGeometry width="80" relative="1" as="geometry">
                        <mxPoint x="430" y="230" as="sourcePoint"/>
                        <mxPoint x="510" y="230" as="targetPoint"/>
                        <Array as="points">
                            <mxPoint x="620" y="150"/>
                            <mxPoint x="675" y="190"/>
                        </Array>
                    </mxGeometry>
                </mxCell>
                <mxCell id="32" value="" style="edgeStyle=none;orthogonalLoop=1;jettySize=auto;html=1;strokeWidth=1;fontSize=16;fontColor=#000000;startSize=6;fillColor=#FFFFFF;shape=flexArrow;curved=1;exitX=0.5;exitY=1;exitDx=0;exitDy=0;entryX=0;entryY=0.5;entryDx=0;entryDy=0;" parent="1" source="11" target="7" edge="1">
                    <mxGeometry width="80" relative="1" as="geometry">
                        <mxPoint x="430" y="330" as="sourcePoint"/>
                        <mxPoint x="510" y="330" as="targetPoint"/>
                        <Array as="points">
                            <mxPoint x="145" y="380"/>
                            <mxPoint x="180" y="470"/>
                        </Array>
                    </mxGeometry>
                </mxCell>
                <mxCell id="34" value="" style="edgeStyle=none;orthogonalLoop=1;jettySize=auto;html=1;strokeWidth=1;fontSize=16;fontColor=#000000;startSize=6;fillColor=#FFFFFF;shape=flexArrow;curved=1;entryX=0.5;entryY=0;entryDx=0;entryDy=0;exitX=0.5;exitY=1;exitDx=0;exitDy=0;" parent="1" source="23" target="7" edge="1">
                    <mxGeometry width="80" relative="1" as="geometry">
                        <mxPoint x="520" y="330" as="sourcePoint"/>
                        <mxPoint x="510" y="330" as="targetPoint"/>
                        <Array as="points"/>
                    </mxGeometry>
                </mxCell>
                <mxCell id="35" value="" style="edgeStyle=none;orthogonalLoop=1;jettySize=auto;html=1;strokeWidth=1;fontSize=16;fontColor=#000000;startSize=6;fillColor=#FFFFFF;shape=flexArrow;curved=1;exitX=0.5;exitY=1;exitDx=0;exitDy=0;entryX=1;entryY=0.5;entryDx=0;entryDy=0;" parent="1" source="27" target="7" edge="1">
                    <mxGeometry width="80" relative="1" as="geometry">
                        <mxPoint x="430" y="330" as="sourcePoint"/>
                        <mxPoint x="510" y="330" as="targetPoint"/>
                        <Array as="points">
                            <mxPoint x="675" y="380"/>
                            <mxPoint x="630" y="470"/>
                        </Array>
                    </mxGeometry>
                </mxCell>
            </root>
        </mxGraphModel>
    </diagram>
</mxfile>